<svg width="100" height="33" viewBox="0 0 100 33" fill="none" xmlns="http://www.w3.org/2000/svg">
<path d="M6.2992 9.62109C7.39562 9.62255 8.44671 10.0587 9.22199 10.834C9.99727 11.6093 10.4335 12.6604 10.4349 13.7568L10.4266 27.8782C10.4349 28.8518 11.2338 29.6506 12.1907 29.6423C13.1727 29.6423 13.9632 28.8518 13.9632 27.8698L13.9632 20.8133L13.9549 14.9301L16.3268 14.9131L16.3098 20.8133L16.3265 27.8865C16.317 28.976 15.88 30.0182 15.1095 30.7886C14.3391 31.5591 13.2969 31.9961 12.2074 32.0056C9.919 31.9972 8.07166 30.1499 8.07998 27.8782L8.07998 13.7485C8.07166 12.7749 7.27281 11.976 6.31585 11.9844C5.33393 11.9844 4.5434 12.7749 4.5434 13.7568L4.5434 20.8133H6.30753L6.31585 26.6965H5.71671L5.72504 29.0515C5.72504 29.7005 5.19246 30.2331 4.53507 30.2414L2.18844 30.2248C1.52273 30.2082 1.01513 29.7006 1.01513 29.0515L1.00681 26.7132L0.424316 26.6965L0.432647 20.8133H2.19678L2.18013 13.7402C2.1896 12.6506 2.62661 11.6084 3.39705 10.838C4.16748 10.0676 5.20969 9.63056 6.2992 9.62109ZM4.55172 26.6965L2.18846 26.6965L2.19677 29.0515L4.5434 29.0515L4.55172 26.6965Z" fill="white"/>
<path d="M15.1614 4.85863C16.482 4.85863 17.5715 3.76915 17.5715 2.41555C17.5715 1.06196 16.482 0.00549316 15.1614 0.00549316C13.7748 0.00549316 12.6853 1.06196 12.6853 2.41555C12.6853 3.76915 13.7748 4.85863 15.1614 4.85863ZM13.1475 24.4363H17.1753V8.12707H13.1475V24.4363Z" fill="white"/>
<path d="M20.6764 31.9966H24.7041V22.2573C25.7276 23.908 27.8405 24.8654 30.2836 24.8654C35.1367 24.8654 37.91 21.1678 37.91 16.0836C37.91 10.9663 34.8726 7.63185 30.2836 7.63185C27.8075 7.63185 25.6616 8.72133 24.6711 10.6032L24.407 8.12707H20.6764V31.9966ZM24.7372 16.2817C24.7372 13.3434 26.553 11.2965 29.3262 11.2965C32.1654 11.2965 33.8492 13.3764 33.8492 16.2817C33.8492 19.1869 32.1654 21.2338 29.3262 21.2338C26.553 21.2338 24.7372 19.22 24.7372 16.2817Z" fill="white"/>
<path d="M43.2493 24.4363H47.178L49.423 17.4372C50.2484 14.763 50.5455 13.6075 50.7106 12.8482C50.8426 13.6735 51.2058 15.2252 51.8661 17.3711L54.1111 24.4363H57.8747L63.5202 8.12707H59.2614L57.0824 15.1262C56.7853 16.1496 56.257 18.0975 55.9929 19.319C55.7948 18.2295 55.1345 15.7864 54.9365 15.1262L52.7575 8.12707H48.6637L46.4187 15.1262C45.8905 16.7439 45.5933 17.7673 45.2962 19.352C44.9991 17.8333 44.6689 16.4137 44.3058 15.1262L42.1598 8.12707H37.967L43.2493 24.4363Z" fill="white"/>
<path d="M67.3128 4.85863C68.6334 4.85863 69.7228 3.76915 69.7228 2.41555C69.7228 1.06196 68.6334 0.00549316 67.3128 0.00549316C65.9262 0.00549316 64.8367 1.06196 64.8367 2.41555C64.8367 3.76915 65.9262 4.85863 67.3128 4.85863ZM65.2989 24.4363H69.3267V8.12707H65.2989V24.4363Z" fill="white"/>
<path d="M83.0623 8.06104C82.402 7.89597 81.8407 7.82994 81.2795 7.82994C79.1005 7.82994 77.5488 8.91942 76.8555 10.5371L76.6244 8.16008H72.8278V24.4363H76.8555V16.5128C76.8555 13.3434 78.6713 11.7917 81.5766 11.7917H83.0623V8.06104Z" fill="white"/>
<path d="M91.8764 24.8654C96.1353 24.8654 99.1066 22.7195 99.7999 19.1539H96.0692C95.607 20.7056 94.1544 21.564 91.9424 21.564C89.2682 21.564 87.7496 20.1114 87.4524 17.2391L99.7338 17.2061V15.9845C99.7338 10.9003 96.6305 7.63185 91.7443 7.63185C86.9572 7.63185 83.6227 11.1644 83.6227 16.2817C83.6227 21.3329 87.0232 24.8654 91.8764 24.8654ZM91.7773 10.9333C94.1874 10.9333 95.7391 12.419 95.7391 14.664H87.5515C87.9477 12.2209 89.4003 10.9333 91.7773 10.9333Z" fill="white"/>
</svg>
